<?xml version="1.0" standalone="no"?>
<!DOCTYPE svg PUBLIC "-//W3C//DTD SVG 20010904//EN"
 "http://www.w3.org/TR/2001/REC-SVG-20010904/DTD/svg10.dtd">
<svg version="1.0" xmlns="http://www.w3.org/2000/svg"
 width="256.000000pt" height="256.000000pt" viewBox="0 0 256.000000 256.000000"
 preserveAspectRatio="xMidYMid meet">
<metadata>
Created by potrace 1.14, written by Peter Selinger 2001-2017
</metadata>
<g transform="translate(0.000000,256.000000) scale(0.100000,-0.100000)"
fill="#000000" stroke="none">
<path d="M1415 2510 l-640 -5 -3 -250 c-1 -137 0 -260 3 -273 l5 -22 757 2
757 3 68 130 c38 71 68 135 68 141 0 16 -131 267 -144 276 -6 4 -60 7 -121 5
-60 -1 -398 -4 -750 -7z"/>
<path d="M388 2395 c-13 -29 3 -55 33 -55 18 0 19 -9 19 -129 0 -104 3 -133
16 -145 22 -23 41 -20 59 8 14 21 16 50 13 176 -3 171 -3 170 -81 170 -41 0
-49 -3 -59 -25z"/>
<path d="M775 1547 c-3 -7 -4 -131 -3 -277 l3 -265 758 0 758 0 72 138 71 137
-71 138 -72 137 -756 3 c-604 2 -757 0 -760 -11z"/>
<path d="M400 1452 c-44 -22 -75 -73 -61 -100 18 -34 41 -34 71 -2 31 33 55
38 64 13 7 -17 -12 -50 -90 -156 -24 -32 -44 -63 -44 -68 0 -5 9 -18 20 -29
16 -16 33 -20 96 -20 86 0 114 11 114 43 0 33 -19 47 -62 47 l-39 0 42 61 c49
73 59 123 33 168 -17 29 -67 61 -96 61 -7 0 -29 -8 -48 -18z"/>
<path d="M780 325 l0 -275 756 2 756 3 71 135 70 135 -72 138 -73 137 -754 0
-754 0 0 -275z"/>
<path d="M394 491 c-37 -23 -62 -76 -47 -100 18 -28 45 -25 73 8 18 23 31 30
43 25 20 -7 23 -54 3 -54 -8 0 -24 -8 -36 -18 -30 -24 -20 -57 21 -71 24 -8
30 -16 27 -33 -4 -33 -38 -29 -58 7 -29 52 -80 41 -80 -17 0 -21 11 -41 34
-64 29 -29 41 -34 79 -34 35 0 51 6 75 28 37 35 50 88 30 128 -12 24 -13 33
-2 54 18 33 17 55 -2 96 -29 61 -101 81 -160 45z"/>
</g>
</svg>
